<svg xmlns="http://www.w3.org/2000/svg" viewBox="0 0 13 13" enable-background="new 0 0 13 13"><path fill="#231F20" d="M9.59 0c-1.14 0-2.385.604-3.09 1.918-.693-1.29-1.907-1.883-3.017-1.883-1.731 0-3.483 1.415-3.483 4.118 0 4.761 5.978 8.607 6.232 8.769.082.052.175.078.268.078.105 0 .21-.033.298-.099.253-.188 6.202-4.655 6.202-9.072 0-2.514-1.715-3.829-3.41-3.829zm-3.111 11.883c-1.169-.815-5.479-4.066-5.479-7.73 0-2.143 1.287-3.118 2.483-3.118.976 0 2.222.667 2.523 2.548.039.243.248.421.494.421s.455-.178.494-.421c.306-1.906 1.589-2.583 2.596-2.583 1.161 0 2.41.885 2.41 2.829 0 3.414-4.367 7.131-5.521 8.054z"/></svg>