<svg xmlns="http://www.w3.org/2000/svg" viewBox="0 0 16 16" enable-background="new 0 0 16 16"><path fill="#231F20" d="M14.085 11.578l-3.612-1.196v-1.517c1.131-.887 1.875-2.334 1.875-3.974 0-2.696-1.995-4.89-4.447-4.89s-4.447 2.193-4.447 4.889c0 1.734.831 3.251 2.072 4.119v1.373l-3.612 1.196c-1.145.38-1.914 1.401-1.914 2.542v1.88h16v-1.88c0-1.141-.77-2.163-1.915-2.542zm-6.184-10.578c1.643 0 3.017 1.306 3.36 3.045-1.042.158-1.705-.183-2.33-1.195l-.445-.722-.416.739c-.341.606-1.55 1.157-2.537 1.157-.347 0-.647-.064-.941-.161.402-1.645 1.725-2.863 3.309-2.863zm-3.447 3.89l.002-.021c.341.094.691.155 1.077.155.948 0 2.184-.406 2.939-1.092.635.783 1.381 1.155 2.32 1.155.172 0 .358-.027.544-.051-.07 2.076-1.578 3.744-3.435 3.744-1.901 0-3.447-1.745-3.447-3.89zm10.546 10.11h-14v-.88c0-.709.494-1.349 1.229-1.593l4.298-1.422v-1.588c.435.157.891.263 1.374.263.555 0 1.082-.126 1.572-.331v1.656l4.297 1.422c.736.244 1.23.884 1.23 1.593v.88z"/></svg>