<svg xmlns="http://www.w3.org/2000/svg" viewBox="0 0 141.598 25" enable-background="new 0 0 141.598 25"><path fill="#0c9" d="M6.786 19.286l-.191-.038c-.187-.077-.309-.26-.309-.462v-4.072h-1.214c-2.797 0-5.072-2.275-5.072-5.071v-4.572c0-2.796 2.275-5.071 5.072-5.071h11.428c2.796 0 5.071 2.275 5.071 5.071v4.571c0 2.796-2.275 5.071-5.071 5.071h-4.936l-4.424 4.426c-.096.096-.224.147-.354.147zm-1.714-18.286c-2.245 0-4.072 1.826-4.072 4.071v4.571c0 2.245 1.827 4.071 4.072 4.071h1.714c.276 0 .5.224.5.5v3.365l3.718-3.718c.094-.094.221-.146.354-.146h5.142c2.245 0 4.071-1.826 4.071-4.071v-4.572c.001-2.245-1.825-4.071-4.071-4.071h-11.428zM22.214 25c-.13 0-.258-.051-.354-.146l-3.282-3.282h-2.649c-1.851 0-3.357-1.506-3.357-3.357 0-.276.224-.5.5-.5s.5.224.5.5c0 1.3 1.058 2.357 2.357 2.357h2.856c.133 0 .26.053.354.146l2.575 2.575v-2.222c0-.276.224-.5.5-.5h1.715c1.3 0 2.356-1.058 2.356-2.357v-2.286c0-1.3-1.057-2.357-2.356-2.357-.276 0-.5-.224-.5-.5s.224-.5.5-.5c1.851 0 3.356 1.506 3.356 3.357v2.286c0 1.851-1.506 3.357-3.356 3.357h-1.215v2.929c0 .202-.122.385-.309.462l-.191.038z"/><path fill="#70767F" d="M39.239 17.508l.77-1.066c.632.73 1.836 1.362 3.139 1.362 1.461 0 2.251-.691 2.251-1.638 0-2.31-5.903-.889-5.903-4.423 0-1.481 1.283-2.744 3.554-2.744 1.619 0 2.764.612 3.534 1.382l-.691 1.026c-.573-.691-1.619-1.204-2.843-1.204-1.303 0-2.113.652-2.113 1.501 0 2.093 5.904.711 5.904 4.423 0 1.599-1.284 2.882-3.751 2.882-1.561-.001-2.884-.474-3.851-1.501zM48.989 6.885c0-.553.454-1.007.987-1.007.552 0 1.007.454 1.007 1.007s-.454.987-1.007.987c-.532.001-.987-.434-.987-.987zm.257 11.886v-9.536h1.48v9.536h-1.48zM65.198 18.771v-6.476c0-1.204-.533-1.974-1.757-1.974-.986 0-2.034.711-2.527 1.461v6.989h-1.48v-6.476c0-1.204-.514-1.974-1.757-1.974-.967 0-1.994.711-2.508 1.481v6.97h-1.48v-9.537h1.48v1.382c.396-.612 1.678-1.619 3.081-1.619 1.461 0 2.291.79 2.567 1.777.533-.869 1.816-1.777 3.198-1.777 1.738 0 2.666.967 2.666 2.882v6.891h-1.483zM71.116 17.33v5.074h-1.48v-13.169h1.48v1.421c.691-.967 1.876-1.658 3.218-1.658 2.508 0 4.245 1.895 4.245 4.995 0 3.08-1.737 5.015-4.245 5.015-1.303 0-2.448-.612-3.218-1.678zm5.904-3.337c0-2.112-1.145-3.672-3.06-3.672-1.166 0-2.33.691-2.844 1.52v4.304c.514.829 1.678 1.54 2.844 1.54 1.915 0 3.06-1.579 3.06-3.692zM80.925 18.771v-13.169h1.48v13.169h-1.48zM85.07 21.16c.218.099.573.158.809.158.652 0 1.086-.217 1.421-1.007l.632-1.441-3.988-9.635h1.598l3.179 7.818 3.16-7.818h1.619l-4.778 11.471c-.573 1.382-1.54 1.915-2.803 1.935-.316 0-.809-.059-1.086-.138l.237-1.343z"/><g fill="#BEC3CC"><path d="M95.905 11.703c0-.849.809-1.501 2.113-1.501 1.223 0 2.27.513 2.843 1.204l.691-1.026c-.77-.77-1.915-1.382-3.534-1.382-2.271 0-3.554 1.264-3.554 2.744 0 3.534 5.903 2.112 5.903 4.423 0 .947-.79 1.638-2.251 1.638-1.303 0-2.507-.632-3.139-1.362l-.77 1.066c.967 1.027 2.291 1.5 3.851 1.5 2.468 0 3.751-1.283 3.751-2.882.001-3.711-5.904-2.329-5.904-4.422zM108.381 8.998c-2.902 0-4.719 2.231-4.719 4.995 0 2.765 1.817 5.015 4.719 5.015 2.903 0 4.72-2.251 4.72-5.015-.001-2.764-1.818-4.995-4.72-4.995zm0 8.687c-2.034 0-3.179-1.737-3.179-3.692 0-1.935 1.145-3.672 3.179-3.672 2.035 0 3.16 1.737 3.16 3.672-.001 1.955-1.126 3.692-3.16 3.692zM119.791 10.321c.986 0 1.796.375 2.428 1.244l.987-.909c-.73-.947-1.757-1.658-3.494-1.658-2.844 0-4.759 2.172-4.759 4.995 0 2.843 1.915 5.015 4.759 5.015 1.737 0 2.764-.711 3.494-1.658l-.987-.909c-.632.849-1.442 1.244-2.428 1.244-2.035 0-3.298-1.579-3.298-3.692-.001-2.112 1.263-3.672 3.298-3.672zM125.276 9.235h1.48v9.536h-1.48zM126.006 5.879c-.533 0-.987.454-.987 1.007s.454.987.987.987c.552 0 1.007-.435 1.007-.987s-.454-1.007-1.007-1.007zM133.469 8.998c-1.56 0-2.784.513-3.811 1.579l.691 1.027c.849-.909 1.778-1.323 2.922-1.323 1.383 0 2.409.73 2.409 2.014v1.717c-.77-.888-1.855-1.303-3.159-1.303-1.619 0-3.337 1.007-3.337 3.139 0 2.074 1.718 3.159 3.337 3.159 1.283 0 2.369-.454 3.159-1.323v1.086h1.481v-6.555c-.001-2.309-1.679-3.217-3.692-3.217zm2.21 7.76c-.573.79-1.579 1.185-2.625 1.185-1.382 0-2.35-.869-2.35-2.074 0-1.224.968-2.093 2.35-2.093 1.046 0 2.053.395 2.625 1.185v1.797zM140.118 5.602h1.48v13.169h-1.48z"/></g></svg>