<svg xmlns="http://www.w3.org/2000/svg" viewBox="0 0 30.762 26" enable-background="new 0 0 30.762 26"><g fill="#231F20"><path d="M15.381 15.476h-.647c-.125 0-.246.047-.339.132l-4.337 3.991v-3.623c0-.276-.224-.5-.5-.5h-.647c-4.362 0-7.911-3.247-7.911-7.238 0-3.991 3.549-7.238 7.911-7.238h10.353c4.362 0 7.911 3.247 7.911 7.238 0 .957-.204 1.888-.606 2.768-.114.251-.004.548.247.663.249.114.548.005.663-.247.462-1.012.696-2.083.696-3.184-.001-4.542-3.998-8.238-8.912-8.238h-10.352c-4.913 0-8.911 3.696-8.911 8.238s3.997 8.238 8.91 8.238h.147v4.262c0 .198.117.378.299.458l.201.042c.123 0 .244-.045.339-.132l5.032-4.63h.452c.276 0 .5-.224.5-.5s-.222-.5-.499-.5zM23.791 13.095c-3.843 0-6.97 2.895-6.97 6.453 0 3.558 3.127 6.452 6.97 6.452 3.844 0 6.971-2.895 6.971-6.452 0-3.558-3.127-6.453-6.971-6.453zm0 11.905c-3.292 0-5.97-2.446-5.97-5.452 0-3.007 2.678-5.453 5.97-5.453s5.971 2.446 5.971 5.453c0 3.006-2.679 5.452-5.971 5.452zM27.027 19.048h-2.735v-2.477c0-.276-.224-.5-.5-.5s-.5.224-.5.5v2.477h-2.734c-.276 0-.5.224-.5.5s.224.5.5.5h2.734v2.476c0 .276.224.5.5.5s.5-.224.5-.5v-2.476h2.735c.276 0 .5-.224.5-.5s-.224-.5-.5-.5z"/></g></svg>