<svg xmlns="http://www.w3.org/2000/svg" viewBox="0 0 18 13" enable-background="new 0 0 18 13"><g fill="#231F20"><path d="M9 3.818c-1.78 0-3.228 1.448-3.228 3.228s1.448 3.226 3.228 3.226c1.779 0 3.227-1.447 3.227-3.227s-1.448-3.227-3.227-3.227zm0 5.454c-1.228 0-2.228-.999-2.228-2.227 0-1.229 1-2.228 2.228-2.228s2.227.999 2.227 2.228c0 1.228-.999 2.227-2.227 2.227zM16 2.031h-2.985l-2.038-1.897c-.093-.086-.214-.134-.341-.134h-3.272c-.127 0-.248.048-.341.134l-2.038 1.897h-2.985c-1.065 0-2 1.005-2 2.15v6.819c0 1.103.897 2 2 2h14c1.103 0 2-.897 2-2v-6.818c0-1.146-.935-2.151-2-2.151zm1 8.969c0 .552-.449 1-1 1h-14c-.551 0-1-.448-1-1v-6.818c0-.592.486-1.15 1-1.15h3.182l.071-.014.111-.023.095-.058.063-.04 2.039-1.897h2.879l2.038 1.897.081.05.073.046.187.038h3.181c.514 0 1 .559 1 1.15v6.819z"/></g></svg>