<svg xmlns="http://www.w3.org/2000/svg" viewBox="0 0 18 13" enable-background="new 0 0 18 13"><g fill="#231F20"><path d="M10.546 3.6h-7.728c-.276 0-.5.224-.5.5s.224.5.5.5h7.728c.276 0 .5-.224.5-.5s-.224-.5-.5-.5zM17.437 1.677c-.283-.154-.619-.13-.921.064l-3.152 2.04v-2.081c0-.953-.559-1.7-1.272-1.7h-10.82c-.713 0-1.272.747-1.272 1.7v9.6c0 .953.559 1.7 1.272 1.7h10.818c.714 0 1.272-.747 1.272-1.7v-2.081l3.152 2.04c.17.109.351.165.526.165.137 0 .271-.033.395-.101.36-.195.565-.641.565-1.223v-7.2c0-.582-.205-1.028-.563-1.223zm-5.074 9.623c0 .437-.205.694-.272.7h-10.819c-.067-.006-.272-.264-.272-.7v-9.6c0-.436.205-.694.272-.7h10.818c.067.006.272.264.272.7v9.6zm4.637-1.2l-.029.263-3.607-2.334v-3.057l3.608-2.334.028.262v7.2z"/></g></svg>